# xmcd
#
# Track frame offsets:
#	150
#	15795
#	31420
#	50702
#	65042
#	86215
#
# Disc length: 1310 seconds
#
# Revision: 1
# Processed by: cddbd v1.5.1PL0 Copyright (c) Steve Scherf et al.
# Submitted via: CDex 1.50Beta5
#
DISCID=49051c06
DTITLE=大和 - 日本人のススメ
DYEAR=1900
DGENRE=Rock
TTITLE0=夏花火
TTITLE1=翔ぶが如く
TTITLE2=死なばもろとも
TTITLE3=飛んで行くよ
TTITLE4=華
TTITLE5=一つの真実
EXTD=
EXTT0=
EXTT1=
EXTT2=
EXTT3=
EXTT4=
EXTT5=
PLAYORDER=
